<svg id="Layer_1" data-name="Layer 1" xmlns="http://www.w3.org/2000/svg" viewBox="0 0 10.77 14.72"><defs><style>.cls-1{fill:#576cbc;}</style></defs><path class="cls-1" d="M3,1,4.58,15h0" transform="translate(-2.62 -0.64)"/><path d="M2.62,1,4.2,15c.06.47.81.48.75,0L3.38,1C3.32.53,2.57.52,2.62,1Z" transform="translate(-2.62 -0.64)"/><path class="cls-1" d="M3.53,1.52C10.72,2.76,13,3.79,13,4.63c0,1.57-8.15,1.9-8.42,4.15C4.39,10.36,8.13,12.21,13,14" transform="translate(-2.62 -0.64)"/><path d="M3.53,1.49C4.78,1.64,6,1.8,7.29,2A32.66,32.66,0,0,1,11,2.87a6.18,6.18,0,0,1,1.83.82,1.83,1.83,0,0,1,.42.45.93.93,0,0,1,.09.8,1.77,1.77,0,0,1-.9.82A24.83,24.83,0,0,1,8.77,7,10.8,10.8,0,0,0,5.42,8.22c-.45.35-.58.68-.3,1.13a4.62,4.62,0,0,0,1.22,1.19,20.85,20.85,0,0,0,3.24,1.83c1.12.56,2.27,1.08,3.43,1.57L13,14a34.06,34.06,0,0,1-6.87-3.13,4.25,4.25,0,0,1-1.37-1.3,1.17,1.17,0,0,1-.18-.93,1.45,1.45,0,0,1,.57-.76,11.1,11.1,0,0,1,3.5-1.41,24.59,24.59,0,0,0,3.6-1.11,1.33,1.33,0,0,0,.68-.57c.11-.29-.11-.57-.36-.74a6.86,6.86,0,0,0-1.68-.81A54.14,54.14,0,0,0,3.52,1.54Z" transform="translate(-2.62 -0.64)"/></svg>